<?xml version="1.0" standalone="no"?>
<!DOCTYPE svg PUBLIC "-//W3C//DTD SVG 20010904//EN"
 "http://www.w3.org/TR/2001/REC-SVG-20010904/DTD/svg10.dtd">
<svg version="1.0" xmlns="http://www.w3.org/2000/svg"
 width="700.000000pt" height="700.000000pt" viewBox="0 0 700.000000 700.000000"
 preserveAspectRatio="xMidYMid meet">
<metadata>
Created by potrace 1.14, written by Peter Selinger 2001-2017
</metadata>
<g transform="translate(0.000000,700.000000) scale(0.100000,-0.100000)"
fill="#000000" stroke="none">
<path d="M3744 6984 c-56 -20 -115 -73 -142 -125 -21 -43 -27 -62 -36 -123 -3
-16 -6 -30 -8 -31 -2 -2 -77 -6 -168 -9 -91 -3 -176 -8 -190 -10 -14 -3 -52
-7 -85 -10 -87 -9 -133 -15 -195 -27 -30 -6 -68 -13 -85 -15 -16 -3 -57 -12
-90 -21 -33 -8 -69 -17 -80 -19 -129 -25 -418 -132 -621 -229 -119 -57 -163
-73 -212 -77 -79 -8 -148 -46 -196 -107 -20 -27 -36 -53 -36 -59 0 -6 -26 -30
-57 -54 -197 -143 -425 -352 -564 -513 -66 -77 -74 -83 -117 -89 -65 -9 -145
-57 -180 -108 -43 -64 -55 -111 -49 -192 5 -65 3 -76 -23 -121 -63 -111 -151
-286 -195 -390 -72 -170 -163 -455 -189 -595 -3 -14 -10 -50 -16 -80 -6 -30
-13 -68 -15 -85 -3 -16 -7 -47 -11 -68 -36 -221 -40 -636 -8 -892 76 -609 323
-1193 711 -1680 131 -164 349 -380 548 -544 223 -183 577 -382 885 -498 175
-66 363 -118 570 -157 119 -23 152 -28 329 -46 119 -12 484 -9 616 5 417 45
789 152 1145 329 116 58 305 164 335 187 5 5 62 45 125 90 165 117 291 224
448 384 364 371 628 800 788 1283 38 113 87 289 100 357 2 11 6 31 9 45 2 14
7 41 10 60 3 19 10 60 15 90 28 168 35 273 35 510 0 197 -8 346 -20 410 -3 14
-8 50 -11 80 -3 30 -7 57 -9 61 -2 3 -7 28 -11 55 -10 77 -69 308 -112 439
-67 204 -166 429 -270 610 -46 79 -46 80 -47 175 0 78 -4 102 -22 136 -43 81
-125 139 -210 150 -31 4 -47 15 -87 62 -73 84 -300 310 -381 378 -38 33 -112
90 -163 128 -60 45 -100 82 -112 106 -21 42 -73 96 -112 116 -15 8 -53 20 -85
27 -34 8 -57 19 -58 28 -1 8 -5 41 -9 74 -3 33 -8 74 -10 90 -2 17 -7 59 -11
95 -3 36 -8 72 -10 80 -2 8 -7 41 -10 72 -14 141 -73 221 -195 265 -55 20
-1090 17 -1146 -3z"/>
</g>
</svg>
