<svg id="Capa_1" enable-background="new 0 0 512 512" height="512" viewBox="0 0 512 512" width="512" xmlns="http://www.w3.org/2000/svg"><g><g><path d="m96 63c-8.284 0-15-6.716-15-15v-33c0-8.284 6.716-15 15-15s15 6.716 15 15v33c0 8.284-6.716 15-15 15z" fill="#774d44"/></g><g><path d="m315.15 181.96c-2.85-3.16-6.9-4.96-11.15-4.96h-272c-4.25 0-8.3 1.8-11.15 4.96-2.84 3.16-4.21 7.38-3.77 11.6l29.18 278.14c2.41 22.97 21.65 40.3 44.76 40.3h153.96c23.11 0 42.35-17.33 44.76-40.3l29.18-278.14c.44-4.22-.93-8.44-3.77-11.6z" fill="#774d44"/></g><g><path d="m318.92 193.56-29.18 278.14c-2.41 22.97-21.65 40.3-44.76 40.3h-76.98v-335h136c4.25 0 8.3 1.8 11.15 4.96 2.84 3.16 4.21 7.38 3.77 11.6z" fill="#703c2f"/></g><g><path d="m318.04 106.73-24-57c-2.19-5.85-7.79-9.73-14.04-9.73h-224c-6.25 0-11.85 3.88-14.04 9.73l-24 57c-1.73 4.61-1.09 9.77 1.71 13.81 2.8 4.05 7.41 6.46 12.33 6.46h272c4.92 0 9.53-2.41 12.33-6.46 2.8-4.04 3.44-9.2 1.71-13.81z" fill="#f4e4a2"/></g><g><path d="m316.33 120.54c-2.8 4.05-7.41 6.46-12.33 6.46h-136v-87h112c6.25 0 11.85 3.88 14.04 9.73l24 57c1.73 4.61 1.09 9.77-1.71 13.81z" fill="#ffca8a"/></g><g><path d="m320 105h-305c-8.28 0-15 6.72-15 15v65c0 8.28 6.72 15 15 15h305c8.28 0 15-6.72 15-15v-65c0-8.28-6.72-15-15-15z" fill="#703c2f"/></g><g><path d="m335 120v65c0 8.28-6.72 15-15 15h-152v-95h152c8.28 0 15 6.72 15 15z" fill="#582b1f"/></g><g><path d="m488 400v64h-264c-17.67 0-32-14.33-32-32 0-8.84 3.58-16.84 9.37-22.63s13.79-9.37 22.63-9.37z" fill="#fff7cc"/></g><g><path d="m328 400h160v64h-160z" fill="#f4e4a2"/></g><g><path d="m512 488c0 6.62-2.69 12.62-7.03 16.97-4.35 4.34-10.35 7.03-16.97 7.03h-264c-44.18 0-80-35.82-80-80 0-22.09 8.96-42.09 23.43-56.57 14.48-14.47 34.48-23.43 56.57-23.43h264c13.25 0 24 10.75 24 24 0 6.62-2.69 12.62-7.03 16.97-4.35 4.34-10.35 7.03-16.97 7.03h-264c-17.67 0-32 14.33-32 32s14.33 32 32 32h264c13.25 0 24 10.75 24 24z" fill="#ff434d"/></g><g><path d="m512 488c0 6.62-2.69 12.62-7.03 16.97-4.35 4.34-10.35 7.03-16.97 7.03h-160v-48h160c13.25 0 24 10.75 24 24z" fill="#cc1d32"/></g><g><path d="m488 400h-160v-48h160c13.25 0 24 10.75 24 24 0 6.62-2.69 12.62-7.03 16.97-4.35 4.34-10.35 7.03-16.97 7.03z" fill="#cc1d32"/></g></g></svg>