<svg id="Capa_1" enable-background="new 0 0 512 512" height="512" viewBox="0 0 512 512" width="512" xmlns="http://www.w3.org/2000/svg"><g><g><path d="m257.963 3.507c-142.516-1.056-257.963 114.176-257.963 254.747v226.866c0 12.912 10.613 23.38 23.704 23.38h230.011c142.52 0 259.349-113.869 258.278-254.436-1.05-137.916-114.202-249.521-254.03-250.557z" fill="#0ed2b3"/></g><g><path d="m469.658 116.891c-43.203 171.723-198.577 298.854-383.638 298.854-29.542 0-58.326-3.246-86.02-9.389v78.765c0 12.912 10.612 23.38 23.704 23.38h230.011c142.52 0 259.349-113.869 258.278-254.436-.386-50.674-15.92-97.784-42.335-137.174z" fill="#0ab69f"/></g></g></svg>