<?xml version="1.0" encoding="iso-8859-1"?>
<!-- Generator: Adobe Illustrator 19.0.0, SVG Export Plug-In . SVG Version: 6.00 Build 0)  -->
<svg version="1.1" id="Capa_1" xmlns="http://www.w3.org/2000/svg" xmlns:xlink="http://www.w3.org/1999/xlink" x="0px" y="0px"
	 viewBox="0 0 468.293 468.293" style="enable-background:new 0 0 468.293 468.293;" xml:space="preserve">
<path style="fill:#E1E6E9;" d="M259.503,468.293H44.19c-13.794,0-24.976-11.182-24.976-24.976V189.276
	c21.888-21.888,34.159-34.159,56.047-56.047h153.171c21.888,21.888,34.159,34.159,56.047,56.047v254.041
	C284.479,457.111,273.297,468.293,259.503,468.293z"/>
<path style="fill:#F6C358;" d="M19.214,313.993v129.324c0,13.793,11.182,24.976,24.976,24.976h215.313
	c13.793,0,24.976-11.182,24.976-24.976V313.993H19.214z"/>
<path style="fill:#E56353;" d="M436.591,409.829h-89.292c-6.897,0-12.488-5.591-12.488-12.488V296.691
	c10.828-10.828,16.898-16.898,27.726-27.726h58.817c10.828,10.828,16.898,16.898,27.726,27.726v100.651
	C449.079,404.238,443.488,409.829,436.591,409.829z"/>
<path style="fill:#DC8744;" d="M260.148,456.127H43.545c-13.438,0-24.331-10.894-24.331-24.331v12.166
	c0,13.438,10.894,24.331,24.331,24.331h216.602c13.438,0,24.331-10.894,24.331-24.331v-12.166
	C284.479,445.233,273.585,456.127,260.148,456.127z"/>
<g>
	<path style="fill:#64798A;" d="M391.945,306.842c-3.362,0-6.083-2.721-6.083-6.083c0-31.852-10.704-79.523-28.62-104.157
		c-19.888-27.349-30.705-56.439-32.149-86.455c-2.626-54.455-45.782-97.486-98.241-97.961c-0.35-0.006-0.701-0.006-1.046-0.006
		c-21.427,0-38.16,6.029-49.75,17.922c-18.926,19.425-18.142,48.128-18.136,48.413l0.006,109.664c0,3.362-2.721,6.083-6.083,6.083
		s-6.083-2.721-6.083-6.083V78.729c-0.048-1.176-0.927-34.014,21.581-57.116c14.185-14.56,34.418-22.056,59.617-21.593
		c58.904,0.535,107.347,48.651,110.287,109.545c1.325,27.605,11.364,54.484,29.832,79.885
		c20.102,27.64,30.949,77.978,30.949,111.309C398.028,304.122,395.307,306.842,391.945,306.842z"/>
	<path style="fill:#64798A;" d="M180.493,209.783H123.2c-5.967,0-10.803-4.837-10.803-10.803v0c0-5.967,4.837-10.803,10.803-10.803
		h57.292c5.967,0,10.803,4.837,10.803,10.803v0C191.296,204.946,186.459,209.783,180.493,209.783z"/>
</g>
<path style="fill:#D5D6DB;" d="M410.194,306.842h-36.497c-3.362,0-6.083-2.721-6.083-6.083s2.721-6.083,6.083-6.083h36.497
	c3.362,0,6.083,2.721,6.083,6.083S413.556,306.842,410.194,306.842z"/>
<g>
</g>
<g>
</g>
<g>
</g>
<g>
</g>
<g>
</g>
<g>
</g>
<g>
</g>
<g>
</g>
<g>
</g>
<g>
</g>
<g>
</g>
<g>
</g>
<g>
</g>
<g>
</g>
<g>
</g>
</svg>
