<?xml version="1.0" encoding="iso-8859-1"?>
<!-- Generator: Adobe Illustrator 21.0.0, SVG Export Plug-In . SVG Version: 6.00 Build 0)  -->
<svg xmlns="http://www.w3.org/2000/svg" xmlns:xlink="http://www.w3.org/1999/xlink" version="1.1" id="Capa_1" x="0px" y="0px" viewBox="0 0 512 512" style="enable-background:new 0 0 512 512;" xml:space="preserve" width="512" height="512">
<g>
	<g>
		<g>
			<path style="fill:#AECEF2;" d="M434.625,244.211H139.186c-8.284,0-15-6.716-15-15c0-8.284,6.716-15,15-15h295.439     c26.123,0,47.375-21.253,47.375-47.376c0-26.123-21.252-47.375-47.375-47.375c-12.654,0-24.552,4.928-33.5,13.876     c-5.857,5.857-15.355,5.857-21.213,0c-5.858-5.857-5.858-15.355,0-21.213c14.614-14.614,34.045-22.663,54.713-22.663     c42.665,0,77.375,34.71,77.375,77.375C512,209.5,477.29,244.211,434.625,244.211z"/>
		</g>
		<g>
			<path style="fill:#C9DFF7;" d="M230.487,437.007c-20.668,0-40.099-8.049-54.713-22.663c-5.857-5.858-5.856-15.355,0.001-21.214     c5.857-5.855,15.354-5.857,21.214,0.001c8.946,8.948,20.844,13.876,33.498,13.876c26.123,0,47.376-21.252,47.376-47.375     c0-26.123-21.253-47.376-47.376-47.376H15c-8.284,0-15-6.716-15-15c0-8.284,6.716-15,15-15h215.487     c42.665,0,77.376,34.711,77.376,77.376C307.863,402.297,273.152,437.007,230.487,437.007z"/>
		</g>
		<g>
			<path style="fill:#C9DFF7;" d="M418.006,396.161c-15.212,0-29.514-5.924-40.27-16.68c-5.858-5.857-5.859-15.355-0.002-21.213     c5.857-5.859,15.355-5.859,21.213-0.002c5.092,5.091,11.86,7.895,19.06,7.895c14.862,0,26.953-12.091,26.953-26.952     c0-14.862-12.091-26.953-26.953-26.953h-74.804c-8.284,0-15-6.716-15-15c0-8.284,6.716-15,15-15h74.804     c31.404,0,56.953,25.549,56.953,56.953C474.959,370.612,449.41,396.161,418.006,396.161z"/>
		</g>
		<g>
			<path style="fill:#C9DFF7;" d="M263.372,176.165H15c-8.284,0-15-6.716-15-15c0-8.284,6.716-15,15-15h248.372     c8.284,0,15,6.716,15,15C278.372,169.449,271.656,176.165,263.372,176.165z"/>
		</g>
	</g>
	<g>
		<path style="fill:#F0F6FE;" d="M319.572,104.993H183.487c-8.284,0-15-6.716-15-15c0-8.284,6.716-15,15-15h136.085    c8.284,0,15,6.716,15,15C334.572,98.277,327.856,104.993,319.572,104.993z"/>
	</g>
	<g>
		<path style="fill:#AECEF2;" d="M79.187,244.211H61.325c-8.284,0-15-6.716-15-15c0-8.284,6.716-15,15-15h17.861    c8.284,0,15,6.716,15,15C94.187,237.495,87.471,244.211,79.187,244.211z"/>
	</g>
</g>















</svg>
